<svg width="44" height="44" viewBox="0 0 44 44" fill="none" xmlns="http://www.w3.org/2000/svg">
<path fill-rule="evenodd" clip-rule="evenodd" d="M31.8995 14.182C32.4853 13.5962 32.4853 12.6465 31.8995 12.0607C31.3137 11.4749 30.364 11.4749 29.7782 12.0607L22 19.8388L14.2219 12.0607C13.6361 11.4749 12.6863 11.4749 12.1005 12.0607C11.5147 12.6465 11.5147 13.5962 12.1005 14.182L19.8787 21.9601L12.1005 29.7383C11.5147 30.3241 11.5147 31.2738 12.1005 31.8596C12.6863 32.4454 13.636 32.4454 14.2218 31.8596L22 24.0815L29.7782 31.8597C30.364 32.4454 31.3138 32.4454 31.8996 31.8597C32.4853 31.2739 32.4853 30.3241 31.8996 29.7383L24.1213 21.9601L31.8995 14.182Z" fill="url(#paint0_linear_0_1605)" fill-opacity="0.87"/>
<defs>
<linearGradient id="paint0_linear_0_1605" x1="17.5521" y1="11.6213" x2="34.6492" y2="21.9356" gradientUnits="userSpaceOnUse">
<stop offset="0.248619" stop-color="#654EA3"/>
<stop offset="1" stop-color="#5F4B8B"/>
</linearGradient>
</defs>
</svg>
