<svg width="52" height="16" viewBox="0 0 52 16" fill="none" xmlns="http://www.w3.org/2000/svg">
<path d="M8 0L10.116 5.08754L15.6085 5.52786L11.4238 9.11246L12.7023 14.4721L8 11.6L3.29772 14.4721L4.5762 9.11246L0.391548 5.52786L5.88397 5.08754L8 0Z" fill="#F2C03F"/>
<path opacity="0.4" d="M26 0L28.116 5.08754L33.6085 5.52786L29.4238 9.11246L30.7023 14.4721L26 11.6L21.2977 14.4721L22.5762 9.11246L18.3915 5.52786L23.884 5.08754L26 0Z" fill="#F2C03F"/>
<path opacity="0.4" d="M44 0L46.116 5.08754L51.6085 5.52786L47.4238 9.11246L48.7023 14.4721L44 11.6L39.2977 14.4721L40.5762 9.11246L36.3915 5.52786L41.884 5.08754L44 0Z" fill="#F2C03F"/>
</svg>
